<svg viewBox="0 0 96 96" xmlns="http://www.w3.org/2000/svg" xmlns:xlink="http://www.w3.org/1999/xlink" id="Icons_DimSmallerSun_M" overflow="hidden"><g id="Icons"><path d="M48 34C40.268 34 34 40.268 34 48 34 55.732 40.268 62 48 62 55.732 62 62 55.732 62 48 61.9917 40.2714 55.7286 34.0083 48 34ZM48 60C41.3726 60 36 54.6274 36 48 36 41.3726 41.3726 36 48 36 54.6274 36 60 41.3726 60 48 59.9928 54.6244 54.6244 59.9928 48 60Z" fill="#233523"/><rect x="47" y="19" width="2" height="11" fill="#233523"/><rect x="47" y="66" width="2" height="11" fill="#233523"/><rect x="66" y="47" width="11" height="2" fill="#233523"/><rect x="19" y="47" width="11" height="2" fill="#233523"/><rect x="59.117" y="30.383" width="11" height="2" fill="#233523" transform="matrix(0.707107 -0.707107 0.707107 0.707107 -3.265 54.883)"/><rect x="25.883" y="63.617" width="11" height="2" fill="#233523" transform="matrix(0.707107 -0.707107 0.707107 0.707107 -36.499 41.117)"/><rect x="63.617" y="59.117" width="2" height="11" fill="#233523" transform="matrix(0.707131 -0.707082 0.707082 0.707131 -26.765 64.614)"/><rect x="30.383" y="25.883" width="2" height="11" fill="#233523" transform="matrix(0.707131 -0.707082 0.707082 0.707131 -12.999 31.382)"/></g></svg>