<svg viewBox="0 0 96 96" xmlns="http://www.w3.org/2000/svg" xmlns:xlink="http://www.w3.org/1999/xlink" id="Icons_Bubbles_M" overflow="hidden"><g id="Icons"><path d="M68 44C68 35.7157 61.2843 29 53 29 44.7157 29 38 35.7157 38 44 38 44.374 38.029 44.74 38.056 45.107 38.6887 44.788 39.3433 44.5146 40.015 44.289 40.015 44.189 40 44.098 40 44 39.9964 36.8203 45.8138 30.9971 52.9935 30.9935 60.1732 30.99 65.9964 36.8074 66 43.987 66.0023 48.675 63.4805 53.0011 59.4 55.309 59.5501 56.0026 59.6503 56.7061 59.7 57.414 64.7858 54.8776 67.9999 49.6832 68 44Z" fill="#233523"/><path d="M44.752 45.513C37.5723 45.513 31.752 51.3333 31.752 58.513 31.752 65.6927 37.5723 71.513 44.752 71.513 51.9317 71.513 57.752 65.6927 57.752 58.513 57.752 51.3333 51.9317 45.513 44.752 45.513ZM44.752 69.52C38.6769 69.52 33.752 64.5951 33.752 58.52 33.752 52.4449 38.6769 47.52 44.752 47.52 50.8271 47.52 55.752 52.4449 55.752 58.52 55.7443 64.5919 50.8239 69.5123 44.752 69.52Z" fill="#233523"/><path d="M24.751 29.508C19.7804 29.508 15.751 33.5374 15.751 38.508 15.751 43.4786 19.7804 47.508 24.751 47.508 29.7216 47.508 33.751 43.4786 33.751 38.508 33.751 33.5374 29.7216 29.508 24.751 29.508ZM24.751 45.513C20.885 45.513 17.751 42.379 17.751 38.513 17.751 34.647 20.885 31.513 24.751 31.513 28.617 31.513 31.751 34.647 31.751 38.513 31.746 42.3769 28.6149 45.508 24.751 45.513Z" fill="#233523"/><path d="M73.754 67.519C68.2311 67.519 63.754 71.9961 63.754 77.519 63.754 83.0418 68.2311 87.519 73.754 87.519 79.2768 87.519 83.754 83.0418 83.754 77.519 83.754 71.9961 79.2768 67.519 73.754 67.519ZM73.754 85.519C69.3357 85.519 65.754 81.9373 65.754 77.519 65.754 73.1007 69.3357 69.519 73.754 69.519 78.1723 69.519 81.754 73.1007 81.754 77.519 81.7507 81.9367 78.1717 85.5179 73.754 85.524Z" fill="#233523"/><path d="M71.753 29.728C75.7416 29.7291 78.9759 26.4966 78.977 22.508 78.9781 18.5194 75.7456 15.2851 71.757 15.284 67.7684 15.2829 64.5341 18.5154 64.533 22.504 64.533 22.5047 64.533 22.5053 64.533 22.506 64.5324 26.494 67.7649 29.7274 71.753 29.728ZM71.753 17.284C74.637 17.2829 76.9759 19.62 76.977 22.504 76.9781 25.388 74.641 27.7269 71.757 27.728 68.873 27.7291 66.5341 25.392 66.533 22.508 66.533 22.5073 66.533 22.5067 66.533 22.506 66.5363 19.6241 68.8711 17.2884 71.753 17.284Z" fill="#233523"/><path d="M20.751 66.519C16.3327 66.519 12.751 70.1007 12.751 74.519 12.751 78.9373 16.3327 82.519 20.751 82.519 25.1693 82.519 28.751 78.9373 28.751 74.519 28.751 70.1007 25.1693 66.519 20.751 66.519ZM20.751 80.519C17.4373 80.519 14.751 77.8327 14.751 74.519 14.751 71.2053 17.4373 68.519 20.751 68.519 24.0647 68.519 26.751 71.2053 26.751 74.519 26.7488 77.8324 24.0644 80.5186 20.751 80.523Z" fill="#233523"/><path d="M34.252 20.726C37.6883 20.7266 40.4744 17.9413 40.475 14.505 40.4756 11.0687 37.6903 8.28255 34.254 8.282 30.8189 8.28145 28.0332 11.0649 28.031 14.5 28.0282 17.9358 30.8112 20.7232 34.247 20.726 34.2487 20.726 34.2503 20.726 34.252 20.726ZM34.252 10.282C36.5837 10.2814 38.4744 12.1713 38.475 14.503 38.4756 16.8347 36.5857 18.7254 34.254 18.726 31.9223 18.7266 30.0316 16.8367 30.031 14.505 30.031 14.5033 30.031 14.5017 30.031 14.5 30.0354 12.1711 31.9231 10.2848 34.252 10.282Z" fill="#233523"/><path d="M17.251 22.506C18.9079 22.506 20.251 21.1629 20.251 19.506 20.251 17.8491 18.9079 16.506 17.251 16.506 15.5941 16.506 14.251 17.8491 14.251 19.506 14.251 21.1629 15.5941 22.506 17.251 22.506ZM17.251 18.506C17.8033 18.506 18.251 18.9537 18.251 19.506 18.251 20.0583 17.8033 20.506 17.251 20.506 16.6987 20.506 16.251 20.0583 16.251 19.506 16.2504 18.9537 16.6977 18.5056 17.25 18.505 17.2503 18.505 17.2507 18.505 17.251 18.505Z" fill="#233523"/><path d="M74.254 58.516C74.254 60.1729 75.5971 61.516 77.254 61.516 78.9109 61.516 80.254 60.1729 80.254 58.516 80.254 56.8591 78.9109 55.516 77.254 55.516 75.5971 55.516 74.254 56.8591 74.254 58.516ZM78.254 58.516C78.254 59.0683 77.8063 59.516 77.254 59.516 76.7017 59.516 76.254 59.0683 76.254 58.516 76.254 57.9637 76.7017 57.516 77.254 57.516 77.8063 57.516 78.254 57.9637 78.254 58.516Z" fill="#233523"/><path d="M37.252 77.522C35.5951 77.522 34.252 78.8652 34.252 80.522 34.252 82.1789 35.5951 83.522 37.252 83.522 38.9089 83.522 40.252 82.1789 40.252 80.522 40.252 78.8652 38.9089 77.522 37.252 77.522ZM37.252 81.522C36.6997 81.522 36.252 81.0743 36.252 80.522 36.252 79.9697 36.6997 79.522 37.252 79.522 37.8043 79.522 38.252 79.9697 38.252 80.522 38.2526 81.0743 37.8053 81.5225 37.253 81.523 37.2527 81.523 37.2523 81.523 37.252 81.523Z" fill="#233523"/><path d="M25 34C24.4477 34 24 34.4477 24 35 24 35.5523 24.4477 36 25 36 26.1046 36 27 36.8954 27 38 27 38.5523 27.4477 39 28 39 28.5523 39 29 38.5523 29 38 29 35.7909 27.2091 34 25 34Z" fill="#233523"/><path d="M62 44C62.5523 44 63 43.5523 63 43 62.9945 38.0317 58.9683 34.0055 54 34 53.4477 34 53 34.4477 53 35 53 35.5523 53.4477 36 54 36 57.8642 36.0044 60.9956 39.1358 61 43 61 43.5523 61.4477 44 62 44Z" fill="#233523"/><path d="M45.585 50.415C45.0327 50.415 44.585 50.8627 44.585 51.415 44.585 51.9673 45.0327 52.415 45.585 52.415 48.3451 52.4183 50.5817 54.6549 50.585 57.415 50.585 57.9673 51.0327 58.415 51.585 58.415 52.1373 58.415 52.585 57.9673 52.585 57.415 52.5806 53.5508 49.4492 50.4194 45.585 50.415Z" fill="#233523"/><path d="M74 72C73.4477 72 73 72.4477 73 73 73 73.5523 73.4477 74 74 74 75.6569 74 77 75.3431 77 77 77 77.5523 77.4477 78 78 78 78.5523 78 79 77.5523 79 77 78.9967 74.2399 76.7601 72.0033 74 72Z" fill="#233523"/></g></svg>