<svg viewBox="0 0 96 96" xmlns="http://www.w3.org/2000/svg" xmlns:xlink="http://www.w3.org/1999/xlink" id="Icons_WateringPot_M" overflow="hidden"><g id="Icons"><path d="M73.7 60.3 73.7 50.363C73.7 49.8107 73.2523 49.363 72.7 49.363 72.1477 49.363 71.7 49.8107 71.7 50.363L71.7 52.375 45.115 52.375 51.932 45.558C52.0722 45.4137 52.1895 45.2488 52.28 45.069 59.169 36.8026 58.0525 24.5166 49.786 17.6276 41.5196 10.7385 29.2336 11.8551 22.3446 20.1215 18.5651 24.6567 17.0456 30.661 18.213 36.448L10.393 44.268C9.61224 45.049 9.61224 46.315 10.393 47.096L28.979 65.683C29.76 66.4638 31.026 66.4638 31.807 65.683L34.702 62.783 71.702 58.343 71.702 60.3C71.702 60.8523 72.1497 61.3 72.702 61.3 73.2543 61.3 73.702 60.8523 73.702 60.3ZM24.946 20.234C31.7716 13.4014 42.8438 13.3958 49.6763 20.2215 55.6474 26.1865 56.5059 35.5651 51.717 42.515L33.346 24.143C32.565 23.3622 31.299 23.3622 30.518 24.143L19.954 34.706C19.291 29.3696 21.134 24.0267 24.946 20.234ZM30.394 64.27 11.807 45.682 31.932 25.557 50.486 44.111C50.453 44.148 50.426 44.189 50.394 44.226L50.416 44.246ZM36.994 60.499 43.119 54.375 71.7 54.375 71.7 56.334Z" stroke-width="0.999945" fill="#233523"/><path d="M73.3 72.1C73.3 73.4807 74.4193 74.6 75.8 74.6 77.1807 74.6 78.3 73.4807 78.3 72.1 78.3 70.4 75.8 66.7 75.8 66.7 75.8 66.7 73.3 70.4 73.3 72.1Z" stroke-width="0.999945" fill="#233523"/><path d="M63.8 79.1C63.8 80.4807 64.9193 81.6 66.3 81.6 67.6807 81.6 68.8 80.4807 68.8 79.1 68.8 77.4 66.3 73.7 66.3 73.7 66.3 73.7 63.8 77.4 63.8 79.1Z" stroke-width="0.999945" fill="#233523"/><path d="M84.3 75.7C84.3 75.7 81.8 79.4 81.8 81.1 81.8 82.4807 82.9193 83.6 84.3 83.6 85.6807 83.6 86.8 82.4807 86.8 81.1 86.8 79.4 84.3 75.7 84.3 75.7Z" stroke-width="0.999945" fill="#233523"/></g></svg>